<?xml version="1.0" standalone="no"?>
<!DOCTYPE svg PUBLIC "-//W3C//DTD SVG 20010904//EN"
 "http://www.w3.org/TR/2001/REC-SVG-20010904/DTD/svg10.dtd">
<svg version="1.0" xmlns="http://www.w3.org/2000/svg"
 width="512.000000pt" height="512.000000pt" viewBox="0 0 512.000000 512.000000"
 preserveAspectRatio="xMidYMid meet">
<metadata>
Created by potrace 1.11, written by Peter Selinger 2001-2013
</metadata>
<g transform="translate(0.000000,512.000000) scale(0.100000,-0.100000)"
fill="#000000" stroke="none">
<path d="M4558 4965 c-2 -2 -19 -5 -39 -8 -106 -14 -325 -115 -522 -241 -107
-68 -284 -191 -297 -206 -3 -3 -25 -21 -50 -40 -124 -94 -354 -306 -435 -400
-127 -148 -189 -268 -174 -337 8 -40 57 -103 163 -208 116 -116 220 -192 364
-266 l52 -28 -97 -94 c-83 -80 -173 -162 -338 -306 -222 -193 -624 -479 -954
-679 l-155 -93 -22 103 c-12 57 -36 144 -54 193 -56 160 -177 367 -238 407
-132 87 -614 -153 -1082 -540 -336 -278 -534 -526 -521 -652 3 -27 52 -97 119
-170 l41 -45 -37 -36 c-83 -79 -112 -147 -108 -245 6 -129 96 -240 259 -318
146 -71 306 -92 457 -60 129 26 244 33 357 20 51 -6 203 -42 210 -50 3 -2 -1
-14 -7 -26 -25 -47 -57 -157 -59 -205 -8 -178 131 -295 301 -254 68 16 140 86
156 152 28 109 -24 250 -125 342 -18 17 -33 35 -33 40 1 18 90 78 141 94 52
17 156 14 151 -4 -1 -6 -13 -41 -26 -80 -40 -115 -39 -225 3 -317 87 -191 379
-154 426 54 24 107 -27 254 -124 360 l-50 55 27 26 c80 75 201 97 296 54 31
-14 56 -30 56 -34 0 -5 -13 -27 -28 -49 -109 -150 -84 -389 47 -462 181 -102
376 97 305 311 -18 53 -34 85 -78 155 l-24 39 55 27 c30 14 73 29 96 32 l42 6
1 -84 c2 -106 23 -173 76 -233 53 -60 109 -88 175 -88 123 0 226 88 240 204
14 116 -106 267 -249 315 -46 15 -49 18 -43 42 18 73 121 166 196 178 l35 6 2
-64 c5 -179 100 -342 212 -365 80 -16 135 -5 196 39 75 53 109 146 89 238 -21
96 -149 221 -275 270 -51 19 -52 21 -28 70 48 101 124 152 230 156 37 2 70 -1
73 -6 3 -5 0 -31 -8 -57 -21 -74 -13 -156 22 -227 56 -112 140 -177 231 -178
56 0 82 11 132 60 74 71 88 199 33 300 -19 35 -44 61 -88 91 -34 22 -73 49
-86 59 l-23 19 48 49 c44 44 73 69 152 131 30 24 34 83 7 113 -29 32 -73 26
-140 -21 -58 -41 -151 -129 -193 -183 -21 -27 -23 -28 -66 -17 -68 17 -202 8
-261 -18 -110 -49 -203 -149 -240 -261 -16 -48 -18 -50 -53 -51 -48 -1 -57 -3
-121 -28 -66 -27 -130 -71 -167 -118 -34 -42 -86 -133 -77 -133 4 0 2 -5 -5
-12 -7 -7 -12 -20 -12 -30 0 -14 -8 -18 -37 -19 -21 0 -51 -3 -68 -5 -38 -7
-155 -53 -175 -69 -43 -36 -54 -35 -115 6 -72 49 -119 62 -215 61 -122 0 -212
-42 -308 -139 l-42 -44 -50 15 c-48 14 -165 16 -217 3 -72 -18 -166 -77 -228
-144 l-22 -25 -71 26 c-111 40 -220 55 -367 51 -71 -1 -141 -6 -155 -9 -149
-34 -180 -38 -250 -33 -163 13 -315 97 -369 205 -33 66 -9 136 66 194 l35 27
93 -64 c227 -155 456 -226 700 -220 95 3 171 12 255 30 14 3 34 7 45 9 320 62
885 310 1290 567 314 199 588 396 830 598 50 42 95 80 101 86 6 5 40 35 75 65
35 30 154 145 264 255 394 393 635 723 789 1076 22 51 64 204 75 274 10 61 8
319 -3 365 -4 14 -9 39 -11 55 -21 119 -115 349 -200 485 -57 93 -86 121 -132
130 -23 4 -44 6 -45 5z m-382 -3469 c38 -41 44 -54 44 -92 0 -50 -28 -85 -61
-77 -43 12 -97 117 -93 183 1 14 2 35 3 48 1 23 1 23 32 5 17 -10 51 -40 75
-67z m-530 -236 c56 -32 121 -101 131 -138 9 -36 -13 -71 -54 -88 -47 -20 -74
-9 -108 46 -26 41 -55 158 -47 193 5 24 19 21 78 -13z m-389 -366 c42 -32 77
-98 69 -130 -7 -28 -47 -56 -80 -56 -29 0 -71 29 -85 60 -14 30 -24 129 -16
159 5 23 6 23 42 8 20 -9 52 -27 70 -41z m-510 -188 c32 -63 28 -125 -10 -163
-73 -74 -141 70 -86 180 33 66 40 72 57 50 7 -10 25 -40 39 -67z m-597 -17
c60 -64 96 -180 70 -228 -16 -31 -74 -55 -100 -41 -49 26 -64 128 -34 231 17
56 22 69 30 69 2 0 17 -14 34 -31z m-494 -195 c13 -22 28 -62 33 -89 8 -43 7
-50 -15 -71 -45 -46 -124 -22 -140 42 -10 38 2 106 28 158 l22 46 24 -23 c13
-12 35 -40 48 -63z"/>
</g>
</svg>
